<svg xmlns="http://www.w3.org/2000/svg" viewBox="0 0 96 96">
  <!-- 직접 그린 오리지널 아이콘 — 실제 상표 로고가 아닙니다 -->
  <circle cx="48" cy="48" r="46" fill="#F2A93B"/>
  <circle cx="48" cy="48" r="41.5" fill="none" stroke="#ffffff" stroke-opacity=".5" stroke-width="1.6"/>
  <rect x="41" y="21.5" width="14" height="7" rx="2" fill="#7A4A1F"/>
  <path d="M43 28.5h10v6.2c4 1.6 6.5 5.3 6.5 9.3v23.5a6 6 0 0 1-6 6h-11a6 6 0 0 1-6-6V44c0-4 2.5-7.7 6.5-9.3z" fill="#8B5A2B"/>
  <rect x="39.5" y="47" width="17" height="12.5" rx="2" fill="#FBE7B2"/>
  <path d="M44.5 50.5h7M44.5 53.5h7M44.5 56.5h4.5" stroke="#8B5A2B" stroke-width="1.6" stroke-linecap="round"/>
  <rect x="40.5" y="37" width="3" height="26" rx="1.5" fill="#ffffff" opacity=".28"/>
</svg>
